<svg width="60" height="60" viewBox="0 0 60 60" fill="none" xmlns="http://www.w3.org/2000/svg">
<mask id="mask0_6127_14443" style="mask-type:alpha" maskUnits="userSpaceOnUse" x="0" y="0" width="60" height="60">
<rect width="60" height="60" fill="#D9D9D9"/>
</mask>
<g mask="url(#mask0_6127_14443)">
<path d="M30 40C32 40 33.7812 39.4062 35.3438 38.2188C36.9062 37.0312 38.0417 35.5 38.75 33.625H21.25C21.9583 35.5 23.0938 37.0312 24.6562 38.2188C26.2188 39.4062 28 40 30 40ZM23.75 30C24.7917 30 25.6771 29.6354 26.4062 28.9062C27.1354 28.1771 27.5 27.2917 27.5 26.25C27.5 25.2083 27.1354 24.3229 26.4062 23.5938C25.6771 22.8646 24.7917 22.5 23.75 22.5C22.7083 22.5 21.8229 22.8646 21.0938 23.5938C20.3646 24.3229 20 25.2083 20 26.25C20 27.2917 20.3646 28.1771 21.0938 28.9062C21.8229 29.6354 22.7083 30 23.75 30ZM36.25 30C37.2917 30 38.1771 29.6354 38.9062 28.9062C39.6354 28.1771 40 27.2917 40 26.25C40 25.2083 39.6354 24.3229 38.9062 23.5938C38.1771 22.8646 37.2917 22.5 36.25 22.5C35.2083 22.5 34.3229 22.8646 33.5938 23.5938C32.8646 24.3229 32.5 25.2083 32.5 26.25C32.5 27.2917 32.8646 28.1771 33.5938 28.9062C34.3229 29.6354 35.2083 30 36.25 30ZM19.0625 16L26.0625 6.9375C26.5625 6.27083 27.1562 5.78125 27.8438 5.46875C28.5312 5.15625 29.25 5 30 5C30.75 5 31.4688 5.15625 32.1562 5.46875C32.8438 5.78125 33.4375 6.27083 33.9375 6.9375L40.9375 16L51.5625 19.5625C52.6458 19.8958 53.5 20.5104 54.125 21.4062C54.75 22.3021 55.0625 23.2917 55.0625 24.375C55.0625 24.875 54.9896 25.375 54.8438 25.875C54.6979 26.375 54.4583 26.8542 54.125 27.3125L47.25 37.0625L47.5 47.3125C47.5417 48.7708 47.0625 50 46.0625 51C45.0625 52 43.8958 52.5 42.5625 52.5C42.4792 52.5 42.0208 52.4375 41.1875 52.3125L30 49.1875L18.8125 52.3125C18.6042 52.3958 18.375 52.4479 18.125 52.4688C17.875 52.4896 17.6458 52.5 17.4375 52.5C16.1042 52.5 14.9375 52 13.9375 51C12.9375 50 12.4583 48.7708 12.5 47.3125L12.75 37L5.9375 27.3125C5.60417 26.8542 5.36458 26.375 5.21875 25.875C5.07292 25.375 5 24.875 5 24.375C5 23.3333 5.30208 22.3646 5.90625 21.4688C6.51042 20.5729 7.35417 19.9375 8.4375 19.5625L19.0625 16ZM22.125 20.3125L10 24.3125L17.75 35.5L17.5 47.4375L30 44L42.5 47.5L42.25 35.5L50 24.4375L37.875 20.3125L30 10L22.125 20.3125Z" fill="#333C4D"/>
</g>
</svg>
