<svg width="32" height="32" viewBox="0 0 32 32" fill="none" xmlns="http://www.w3.org/2000/svg">
<g clip-path="url(#clip0_6055_10)">
<path fill-rule="evenodd" clip-rule="evenodd" d="M22.583 8.5C22.235 9.296 21.686 9.984 21 10.499V21.5C21 26.93 16.422 31.363 11.025 31.5C11.017 31.5 11.008 31.5 11 31.5C8.348 31.5 5.804 30.446 3.929 28.571C2.054 26.696 1 24.152 1 21.5C1 18.868 1 14.5 1 14.5C1 14.096 1.244 13.731 1.617 13.576C1.991 13.421 2.421 13.507 2.707 13.793L9.707 20.793C9.993 21.079 10.079 21.509 9.924 21.883C9.769 22.256 9.404 22.5 9 22.5H7.127C7.304 23.186 7.662 23.819 8.172 24.328C8.922 25.079 9.939 25.5 11 25.5C13.209 25.5 15 23.709 15 21.5V10.499C13.786 9.587 13 8.134 13 6.5C13 3.74 15.24 1.5 18 1.5C20.049 1.5 21.811 2.735 22.583 4.5H20.235C19.686 3.886 18.888 3.5 18 3.5C16.344 3.5 15 4.844 15 6.5C15 7.61 15.604 8.58 16.501 9.099C16.81 9.278 17 9.607 17 9.964V21.5C17 24.814 14.314 27.5 11 27.5C9.409 27.5 7.883 26.868 6.757 25.743C5.632 24.617 5 23.091 5 21.467C5 20.933 5.433 20.5 5.967 20.5H6.586L3 16.914V21.5C3 23.622 3.843 25.657 5.343 27.157C6.84 28.654 8.87 29.497 10.994 29.5C15.315 29.381 19 25.85 19 21.5V9.964C19 9.607 19.19 9.278 19.499 9.099C19.775 8.939 20.023 8.736 20.235 8.5H22.583Z" fill="#333C4D"/>
<path fill-rule="evenodd" clip-rule="evenodd" d="M27 14.5C28.061 14.5 29.078 14.079 29.828 13.328C30.579 12.578 31 11.561 31 10.5C31 10.169 31 9.831 31 9.5C31 8.439 30.579 7.422 29.828 6.672C29.078 5.921 28.061 5.5 27 5.5H18C17.448 5.5 17 5.948 17 6.5C17 7.052 17.448 7.5 18 7.5H27C27.53 7.5 28.039 7.711 28.414 8.086C28.789 8.461 29 8.97 29 9.5V10.5C29 11.03 28.789 11.539 28.414 11.914C28.039 12.289 27.53 12.5 27 12.5C24.791 12.5 23 14.291 23 16.5V18.5C23 20.709 24.791 22.5 27 22.5C28.5 22.5 30 22.5 30 22.5C30.552 22.5 31 22.052 31 21.5C31 20.948 30.552 20.5 30 20.5C30 20.5 28.5 20.5 27 20.5C25.895 20.5 25 19.605 25 18.5V16.5C25 15.395 25.895 14.5 27 14.5Z" fill="#377CFB"/>
</g>
<defs>
<clipPath id="clip0_6055_10">
<rect width="32" height="31" fill="white" transform="translate(0 0.5)"/>
</clipPath>
</defs>
</svg>
