<svg width="60" height="60" viewBox="0 0 60 60" fill="none" xmlns="http://www.w3.org/2000/svg">
<mask id="mask0_6127_14455" style="mask-type:alpha" maskUnits="userSpaceOnUse" x="0" y="0" width="60" height="60">
<rect width="60" height="60" fill="#D9D9D9"/>
</mask>
<g mask="url(#mask0_6127_14455)">
<path d="M27.5 52.5C23.3333 52.5 19.7917 51.0417 16.875 48.125C13.9583 45.2083 12.5 41.6667 12.5 37.5V22.5L25 35L21.5 38.5625L17.5 34.5625V37.5C17.5 40.25 18.4792 42.6042 20.4375 44.5625C22.3958 46.5208 24.75 47.5 27.5 47.5C30.25 47.5 32.6042 46.5208 34.5625 44.5625C36.5208 42.6042 37.5 40.25 37.5 37.5V29.5625C36 28.9792 34.7917 28.0521 33.875 26.7813C32.9583 25.5104 32.5 24.0833 32.5 22.5C32.5 20.9167 32.9583 19.4896 33.875 18.2188C34.7917 16.9479 36 16.0208 37.5 15.4375V5H42.5V15.4375C44 16.0208 45.2083 16.9479 46.125 18.2188C47.0417 19.4896 47.5 20.9167 47.5 22.5C47.5 24.0833 47.0417 25.5208 46.125 26.8125C45.2083 28.1042 44 29.0208 42.5 29.5625V37.5C42.5 41.6667 41.0417 45.2083 38.125 48.125C35.2083 51.0417 31.6667 52.5 27.5 52.5ZM40 25C40.7083 25 41.3021 24.7604 41.7813 24.2812C42.2604 23.8021 42.5 23.2083 42.5 22.5C42.5 21.7917 42.2604 21.1979 41.7813 20.7188C41.3021 20.2396 40.7083 20 40 20C39.2917 20 38.6979 20.2396 38.2188 20.7188C37.7396 21.1979 37.5 21.7917 37.5 22.5C37.5 23.2083 37.7396 23.8021 38.2188 24.2812C38.6979 24.7604 39.2917 25 40 25Z" fill="#333C4D"/>
</g>
</svg>
