<svg width="60" height="60" viewBox="0 0 60 60" fill="none" xmlns="http://www.w3.org/2000/svg">
<mask id="mask0_6127_14449" style="mask-type:alpha" maskUnits="userSpaceOnUse" x="0" y="0" width="60" height="60">
<rect width="60" height="60" fill="#D9D9D9"/>
</mask>
<g mask="url(#mask0_6127_14449)">
<path d="M40 27.5C40.7083 27.5 41.3021 27.2604 41.7812 26.7813C42.2604 26.3021 42.5 25.7083 42.5 25C42.5 24.2917 42.2604 23.6979 41.7812 23.2188C41.3021 22.7396 40.7083 22.5 40 22.5C39.2917 22.5 38.6979 22.7396 38.2188 23.2188C37.7396 23.6979 37.5 24.2917 37.5 25C37.5 25.7083 37.7396 26.3021 38.2188 26.7813C38.6979 27.2604 39.2917 27.5 40 27.5ZM20 22.5H32.5V17.5H20V22.5ZM11.25 52.5C9.83333 47.75 8.4375 43.0104 7.0625 38.2812C5.6875 33.5521 5 28.7083 5 23.75C5 19.9167 6.33333 16.6667 9 14C11.6667 11.3333 14.9167 10 18.75 10H31.25C32.4583 8.41667 33.9271 7.1875 35.6562 6.3125C37.3854 5.4375 39.25 5 41.25 5C42.2917 5 43.1771 5.36458 43.9062 6.09375C44.6354 6.82292 45 7.70833 45 8.75C45 9 44.9688 9.25 44.9062 9.5C44.8438 9.75 44.7708 9.97917 44.6875 10.1875C44.5208 10.6458 44.3646 11.1146 44.2188 11.5938C44.0729 12.0729 43.9583 12.5625 43.875 13.0625L49.5625 18.75H55V36.1875L47.9375 38.5L43.75 52.5H30V47.5H25V52.5H11.25ZM15 47.5H20V42.5H35V47.5H40L43.875 34.625L50 32.5625V23.75H47.5L38.75 15C38.75 14.1667 38.8021 13.3646 38.9062 12.5938C39.0104 11.8229 39.1667 11.0417 39.375 10.25C38.1667 10.5833 37.1042 11.1563 36.1875 11.9688C35.2708 12.7813 34.6042 13.7917 34.1875 15H18.75C16.3333 15 14.2708 15.8542 12.5625 17.5625C10.8542 19.2708 10 21.3333 10 23.75C10 27.8333 10.5625 31.8229 11.6875 35.7188C12.8125 39.6146 13.9167 43.5417 15 47.5Z" fill="#333C4D"/>
</g>
</svg>
